# xmcd
#
# Track frame offsets:
#	150
#	17203
#	32553
#	44678
#	55226
#	74265
#	90661
#	105471
#
# Disc length: 1702 seconds
#
# Revision: 1
# Processed by: cddbd v1.5.2PL0 Copyright (c) Steve Scherf et al.
# Submitted via: audiograbber 1.82.02
#
DISCID=6506a408
DTITLE=Φούκα Μυρτώ - Το βάλσαμο
DYEAR=2008
DGENRE=
TTITLE0=Φούκα Μυρτώ - Φίλα με
TTITLE1=Φούκα Μυρτώ - Τ' αφιερώνω σε σένα
TTITLE2=Φούκα Μυρτώ - Τώρα κατάλαβα
TTITLE3=Φούκα Μυρτώ - Μαζί σου
TTITLE4=Φούκα Μυρτώ - Το βάλσαμο
TTITLE5=Φούκα Μυρτώ - Εσύ
TTITLE6=Φούκα Μυρτώ - Φίλα με (Dance Remix)
TTITLE7=Φούκα Μυρτώ - Τ' αφιερώνω σε σένα (Club Remix)
EXTD=
EXTT0=
EXTT1=
EXTT2=
EXTT3=
EXTT4=
EXTT5=
EXTT6=
EXTT7=
PLAYORDER=
